<svg width="13" height="12" viewBox="0 0 13 12" fill="none" xmlns="http://www.w3.org/2000/svg">
<path d="M7.99805 3.25C7.99805 3.10937 7.88867 3 7.74805 3H7.24805C7.10742 3 6.99805 3.10937 6.99805 3.25V6H5.24805C5.10742 6 4.99805 6.10937 4.99805 6.25V6.75C4.99805 6.89062 5.10742 7 5.24805 7H7.74805C7.88867 7 7.99805 6.89062 7.99805 6.75V3.25ZM11.248 6C11.248 8.34375 9.3418 10.25 6.99805 10.25C4.6543 10.25 2.74805 8.34375 2.74805 6C2.74805 3.65625 4.6543 1.75 6.99805 1.75C9.3418 1.75 11.248 3.65625 11.248 6ZM12.998 6C12.998 2.6875 10.3105 -5.96046e-07 6.99805 -5.96046e-07C3.68555 -5.96046e-07 0.998047 2.6875 0.998047 6C0.998047 9.3125 3.68555 12 6.99805 12C10.3105 12 12.998 9.3125 12.998 6Z" fill="#FF9600"/>
</svg>
