<svg width="12" height="11" viewBox="0 0 12 11" fill="none" xmlns="http://www.w3.org/2000/svg">
<path d="M11.4971 8.6875C11.4971 8.63281 11.4971 8.57812 11.4736 8.52344C11.4189 8.35937 11.0361 8.1875 10.8799 8.10937C10.4346 7.85937 9.98145 7.61719 9.54395 7.35937C9.34082 7.23437 9.09082 7 8.84863 7C8.37207 7 7.67676 8.41406 7.25488 8.41406C7.04395 8.41406 6.77051 8.21875 6.58301 8.10937C5.16113 7.32031 4.17676 6.33594 3.3877 4.91406C3.27832 4.72656 3.08301 4.45312 3.08301 4.24219C3.08301 3.82031 4.49707 3.125 4.49707 2.64844C4.49707 2.40625 4.2627 2.15625 4.1377 1.95312C3.87988 1.51562 3.6377 1.0625 3.3877 0.617187C3.30957 0.460937 3.1377 0.0781245 2.97363 0.023437C2.91895 -5.96046e-07 2.86426 -5.96046e-07 2.80957 -5.96046e-07C2.52832 -5.96046e-07 1.98145 0.125 1.72363 0.242187C1.34082 0.40625 1.09082 0.84375 0.895508 1.19531C0.645508 1.65625 0.49707 2.125 0.49707 2.64844C0.49707 3.375 0.793945 4.03125 1.03613 4.69531C1.20801 5.17187 1.41895 5.63281 1.68457 6.0625C2.50488 7.39062 4.10645 8.99219 5.43457 9.8125C5.86426 10.0781 6.3252 10.2891 6.80176 10.4609C7.46582 10.7031 8.12207 11 8.84863 11C9.37207 11 9.84082 10.8516 10.3018 10.6016C10.6533 10.4062 11.0908 10.1562 11.2549 9.77344C11.3721 9.51562 11.4971 8.96875 11.4971 8.6875Z" fill="#FF9600"/>
</svg>
