<svg width="12" height="12" viewBox="0 0 12 12" fill="none" xmlns="http://www.w3.org/2000/svg">
<path d="M11.9749 9.29781C11.9409 9.19554 11.725 9.04488 11.3272 8.84619C11.2194 8.78357 11.0659 8.69846 10.8672 8.59049C10.6683 8.48252 10.4878 8.38303 10.326 8.2921C10.1638 8.20121 10.0119 8.11314 9.86998 8.02804C9.84729 8.01099 9.77628 7.96135 9.65697 7.87879C9.53753 7.79646 9.43682 7.73535 9.35428 7.6955C9.27192 7.65589 9.1909 7.63595 9.11135 7.63595C8.99774 7.63595 8.85583 7.71696 8.68544 7.87879C8.51505 8.04082 8.35875 8.21682 8.21678 8.40733C8.07478 8.59774 7.92418 8.77375 7.76526 8.93569C7.60609 9.09769 7.47531 9.17861 7.37316 9.17861C7.32188 9.17861 7.25794 9.16432 7.18131 9.13611C7.10472 9.10772 7.04645 9.08339 7.00645 9.06378C6.9668 9.04375 6.89877 9.00411 6.80212 8.94425C6.70528 8.88458 6.65143 8.8519 6.64009 8.84619C5.86172 8.41428 5.19417 7.91995 4.6373 7.36332C4.08061 6.80636 3.58622 6.13887 3.15443 5.36041C3.14876 5.34904 3.11601 5.29504 3.0564 5.1985C2.9967 5.10188 2.9569 5.03379 2.93702 4.99391C2.91714 4.95417 2.89299 4.89591 2.86463 4.81922C2.83628 4.74253 2.82204 4.67865 2.82204 4.62746C2.82204 4.52525 2.90302 4.3945 3.06496 4.23539C3.22688 4.07638 3.40306 3.92575 3.59332 3.78381C3.78374 3.64187 3.95974 3.48557 4.12172 3.31518C4.28363 3.1447 4.36458 3.00273 4.36458 2.88912C4.36458 2.80963 4.3447 2.72858 4.30497 2.64622C4.26521 2.56368 4.20413 2.46297 4.12172 2.34359C4.03927 2.22428 3.98957 2.15332 3.97249 2.13049C3.88736 1.98855 3.79939 1.83658 3.70837 1.67464C3.61735 1.51272 3.51801 1.33225 3.41001 1.13341C3.3021 0.934661 3.21693 0.781198 3.15437 0.673257C2.95562 0.275613 2.80508 0.0596122 2.70278 0.0256419C2.66299 0.00859706 2.60329 0 2.52383 0C2.37033 0 2.17009 0.0283583 1.92296 0.0852542C1.67573 0.14206 1.4812 0.201643 1.33914 0.26424C1.05504 0.383494 0.753938 0.730063 0.435728 1.30383C0.145965 1.8378 0.00109863 2.36631 0.00109863 2.88897C0.00109863 3.04225 0.011039 3.19139 0.0309197 3.3364C0.0508004 3.48127 0.0863229 3.64465 0.137517 3.8265C0.188622 4.00829 0.229846 4.14333 0.26101 4.23127C0.292204 4.31928 0.350444 4.47692 0.435698 4.70426C0.520832 4.93155 0.572027 5.07068 0.589072 5.12182C0.787908 5.67866 1.0237 6.17576 1.29639 6.61329C1.74505 7.34051 2.35732 8.09207 3.13284 8.86766C3.9084 9.64318 4.65981 10.2554 5.38709 10.7043C5.82456 10.9769 6.32185 11.2127 6.87859 11.4117C6.92976 11.4286 7.06889 11.4797 7.29609 11.5651C7.52337 11.6503 7.68108 11.7086 7.76908 11.7398C7.85711 11.7711 7.99218 11.8124 8.17383 11.8636C8.35586 11.9147 8.51908 11.9503 8.66395 11.9703C8.8089 11.9899 8.95807 12 9.11138 12C9.63401 12 10.1626 11.8551 10.6966 11.5653C11.2703 11.2473 11.6168 10.9461 11.7361 10.6618C11.7989 10.5199 11.8583 10.3253 11.9151 10.0781C11.9721 9.83095 12.0004 9.63074 12.0004 9.47727C12.0006 9.39748 11.992 9.33793 11.9749 9.29781Z" fill="white"/>
</svg>
