<svg width="13" height="14" viewBox="0 0 13 14" fill="none" xmlns="http://www.w3.org/2000/svg">
<path d="M8.57143 6.64286C8.57143 7.8231 7.60882 8.78571 6.42857 8.78571C5.24833 8.78571 4.28571 7.8231 4.28571 6.64286C4.28571 5.46261 5.24833 4.5 6.42857 4.5C7.60882 4.5 8.57143 5.46261 8.57143 6.64286ZM12.8571 5.73047C12.8571 5.58817 12.7567 5.45424 12.6144 5.42913L11.0826 5.19475C10.9989 4.91853 10.8817 4.6423 10.7394 4.37444C11.024 3.98103 11.3337 3.61272 11.6183 3.22768C11.6602 3.16908 11.6853 3.11049 11.6853 3.03516C11.6853 2.96819 11.6685 2.90123 11.6267 2.851C11.2751 2.35714 10.6892 1.83817 10.2455 1.42801C10.1869 1.37779 10.1116 1.34431 10.0363 1.34431C9.96094 1.34431 9.8856 1.36942 9.83538 1.41964L8.64676 2.31529C8.40402 2.18973 8.1529 2.08929 7.89342 2.00558L7.65904 0.465402C7.6423 0.323102 7.50837 0.214285 7.3577 0.214285H5.49944C5.34877 0.214285 5.23159 0.314732 5.1981 0.44866C5.06417 0.950892 5.01395 1.49498 4.95536 2.00558C4.69587 2.08929 4.43638 2.1981 4.19364 2.32366L3.0385 1.42801C2.97154 1.37779 2.89621 1.34431 2.82087 1.34431C2.53627 1.34431 1.40625 2.56641 1.20536 2.84263C1.1635 2.90123 1.13002 2.95982 1.13002 3.03516C1.13002 3.11049 1.1635 3.17745 1.21373 3.23605C1.52344 3.61272 1.82478 3.9894 2.10938 4.39118C1.97545 4.6423 1.86663 4.89341 1.78292 5.16127L0.226004 5.39565C0.100446 5.42076 0 5.57143 0 5.69699V7.55525C0 7.69754 0.100446 7.83147 0.242746 7.85658L1.77455 8.08259C1.85826 8.36719 1.97545 8.64342 2.11775 8.91127C1.83315 9.30469 1.52344 9.67299 1.23884 10.058C1.19699 10.1166 1.17188 10.1752 1.17188 10.2506C1.17188 10.3175 1.18862 10.3845 1.23047 10.4431C1.58203 10.9286 2.16797 11.4475 2.61161 11.8493C2.6702 11.9079 2.74554 11.9414 2.82087 11.9414C2.89621 11.9414 2.97154 11.9163 3.03013 11.8661L4.21038 10.9704C4.45312 11.096 4.70424 11.1964 4.96373 11.2801L5.1981 12.8203C5.21484 12.9626 5.34877 13.0714 5.49944 13.0714H7.3577C7.50837 13.0714 7.62556 12.971 7.65904 12.8371C7.79297 12.3348 7.84319 11.7907 7.90179 11.2801C8.16127 11.1964 8.42076 11.0876 8.6635 10.9621L9.81864 11.8661C9.8856 11.9079 9.96094 11.9414 10.0363 11.9414C10.3209 11.9414 11.4509 10.7109 11.6518 10.4431C11.702 10.3845 11.7271 10.3259 11.7271 10.2506C11.7271 10.1752 11.6936 10.0999 11.6434 10.0413C11.3337 9.66462 11.0324 9.29632 10.7478 8.88616C10.8817 8.64342 10.9821 8.3923 11.0742 8.12444L12.6228 7.89007C12.7567 7.86496 12.8571 7.71429 12.8571 7.58873V5.73047Z" fill="white"/>
</svg>
