<svg width="14" height="24" viewBox="0 0 14 24" fill="none" xmlns="http://www.w3.org/2000/svg">
<path d="M12.9988 0.00499355L9.88657 0C6.39009 0 4.13051 2.31826 4.13051 5.90637V8.6296H1.0013C0.7309 8.6296 0.511932 8.84882 0.511932 9.11922V13.0649C0.511932 13.3353 0.731149 13.5542 1.0013 13.5542H4.13051V23.5104C4.13051 23.7808 4.34947 23.9998 4.61987 23.9998H8.7026C8.973 23.9998 9.19197 23.7805 9.19197 23.5104V13.5542H12.8507C13.1211 13.5542 13.3401 13.3353 13.3401 13.0649L13.3416 9.11922C13.3416 8.98939 13.2899 8.86505 13.1983 8.77317C13.1067 8.68129 12.9818 8.6296 12.852 8.6296H9.19197V6.32108C9.19197 5.21152 9.45638 4.64825 10.9018 4.64825L12.9983 4.6475C13.2684 4.6475 13.4874 4.42828 13.4874 4.15813V0.494361C13.4874 0.22446 13.2687 0.0054929 12.9988 0.00499355Z" fill="#B5B5B5"/>
</svg>
