<svg width="24" height="20" viewBox="0 0 24 20" fill="none" xmlns="http://www.w3.org/2000/svg">
<path d="M8.95368 19.846C7.91583 19.846 6.8476 19.7619 5.77295 19.5935C3.88019 19.2965 1.96417 18.3064 1.422 18.01L0 17.2325L1.53955 16.7262C3.22247 16.1729 4.24622 15.8296 5.51349 15.292C4.24457 14.6775 3.2666 13.5721 2.79584 12.1431L2.43768 11.0558L2.73138 11.1007C2.45288 10.82 2.23297 10.5351 2.0625 10.276C1.45624 9.35514 1.13525 8.22995 1.20355 7.26572L1.27094 6.31668L1.83911 6.53678C1.59943 6.08414 1.42621 5.60074 1.3244 5.09409C1.07629 3.85849 1.28394 2.54581 1.90924 1.39792L2.40418 0.489353L3.0661 1.2844C5.15955 3.79917 7.8111 5.29093 10.9581 5.72763C10.8296 4.84159 10.9259 3.98648 11.2447 3.22C11.6158 2.32755 12.2761 1.57077 13.1536 1.03134C14.1281 0.432407 15.3098 0.142185 16.4811 0.214145C17.7239 0.2905 18.8522 0.756137 19.7483 1.56162C20.1859 1.44791 20.5084 1.32651 20.9442 1.16245C21.2064 1.06375 21.5037 0.951694 21.8758 0.82352L23.2469 0.351108L22.3528 2.9047C22.4117 2.89975 22.4725 2.89554 22.5361 2.89279L24.0002 2.82651L23.1348 4.00919C23.0852 4.07694 23.0726 4.09616 23.055 4.12271C22.9852 4.22782 22.8984 4.35855 21.7106 5.94461C21.4133 6.34177 21.2648 6.85904 21.2924 7.4014C21.3977 9.46244 21.1448 11.3272 20.5404 12.9436C19.9688 14.4729 19.0829 15.7851 17.9077 16.8436C16.4535 18.1532 14.5992 19.0498 12.3961 19.5083C11.3154 19.7332 10.1548 19.846 8.95368 19.846Z" fill="#B5B5B5"/>
</svg>
